<svg width="24" height="24" viewBox="0 0 24 24" fill="none" xmlns="http://www.w3.org/2000/svg">
<path fill-rule="evenodd" clip-rule="evenodd" d="M18.7327 4.31238e-10C19.3113 4.44559e-10 19.8662 0.229866 20.2754 0.639044L23.3609 3.72459C23.7701 4.13377 24 4.68872 24 5.26738L24 20.7273C24 22.5348 22.5348 24 20.7273 24L3.27273 24C1.46525 24 -5.18766e-10 22.5348 -4.77156e-10 20.7273L0 3.27273C0 1.46525 1.46525 0 3.27273 0L18.7327 4.31238e-10ZM3.27273 2.18182C2.67024 2.18182 2.18182 2.67024 2.18182 3.27273L2.18182 20.7273C2.18182 21.3298 2.67024 21.8182 3.27273 21.8182L4.36364 21.8182L4.36364 15.2727C4.36364 13.4652 5.82889 12 7.63636 12L16.3636 12C18.1712 12 19.6364 13.4652 19.6364 15.2727L19.6364 21.8182L20.7273 21.8182C21.3298 21.8182 21.8182 21.3298 21.8182 20.7273L21.8182 6.35829C21.8182 5.77963 21.5883 5.22468 21.1791 4.8155L19.1845 2.82086C18.7753 2.41168 18.2204 2.18182 17.6417 2.18182L17.4545 2.18182L17.4545 4.36364C17.4545 6.17111 15.9893 7.63636 14.1818 7.63636L9.81818 7.63636C8.01071 7.63636 6.54545 6.17111 6.54545 4.36364L6.54545 2.18182L3.27273 2.18182ZM17.4545 21.8182L17.4545 15.2727C17.4545 14.6702 16.9661 14.1818 16.3636 14.1818L7.63636 14.1818C7.03388 14.1818 6.54545 14.6702 6.54545 15.2727L6.54545 21.8182L17.4545 21.8182ZM8.72727 2.18182L15.2727 2.18182L15.2727 4.36364C15.2727 4.96612 14.7843 5.45455 14.1818 5.45455L9.81818 5.45455C9.21569 5.45455 8.72727 4.96612 8.72727 4.36364L8.72727 2.18182Z" fill="#111111"/>
</svg>
