<svg width="25" height="21" viewBox="0 0 25 21" fill="none" xmlns="http://www.w3.org/2000/svg">
<path d="M20.2135 4.78103L8.48759 4.78103L8.48049 4.78103C7.30141 4.78102 6.3403 4.78101 5.56271 4.85149L5.5761 4.99924L5.56271 4.85149C4.75776 4.92445 4.03912 5.08001 3.3819 5.45946C2.61211 5.9039 1.97287 6.54312 1.52843 7.31292C1.14898 7.97014 0.993415 8.68877 0.920467 9.49373C0.849976 10.2715 0.849987 11.2328 0.85 12.4122L0.85 12.4186L0.85 12.5124L0.85 12.5195C0.849987 13.6985 0.849976 14.6597 0.920454 15.4373L1.06982 15.4238L0.920454 15.4373C0.993416 16.2422 1.14896 16.9608 1.52842 17.6181C1.97286 18.3879 2.61211 19.0272 3.3819 19.4716C4.03913 19.851 4.75775 20.0065 5.5627 20.0795L5.56272 20.0795C6.34036 20.15 7.30154 20.15 8.48074 20.15L8.48761 20.15L17.7069 20.15C18.3325 20.15 18.8397 19.6428 18.8397 19.0172C18.8397 18.3917 18.3325 17.8845 17.7069 17.8845L8.53448 17.8845C7.2889 17.8845 6.43055 17.8834 5.76721 17.8232L5.76719 17.8232C5.11939 17.7646 4.76958 17.6567 4.51462 17.5096C4.08926 17.264 3.73601 16.9107 3.49041 16.4853C3.34323 16.2304 3.23545 15.8806 3.17673 15.2328C3.11661 14.5695 3.11552 13.7111 3.11552 12.4655C3.11552 11.22 3.11661 10.3616 3.17673 9.69823C3.23545 9.0504 3.34324 8.70063 3.49042 8.44568C3.73603 8.02029 4.08927 7.66705 4.51465 7.42144C4.76959 7.27426 5.11938 7.16648 5.76721 7.10776C6.43056 7.04764 7.28892 7.04655 8.5345 7.04655L20.2135 7.04655L18.2163 9.04384C17.7739 9.48621 17.7739 10.2034 18.2163 10.6458C18.6587 11.0881 19.3758 11.0881 19.8182 10.6458L23.7492 6.71477C24.1916 6.27241 24.1916 5.55517 23.7492 5.11281L19.8182 1.18177C19.3758 0.739409 18.6587 0.739409 18.2163 1.18177C17.7739 1.62414 17.7739 2.34137 18.2163 2.78373L20.2135 4.78103Z" fill="#111111" stroke="#111111" stroke-width="0.3"/>
</svg>
