<svg width="45" height="45" viewBox="0 0 45 45" fill="none" xmlns="http://www.w3.org/2000/svg">
<g clip-path="url(#clip0_487_341)">
<path d="M14.558 18.9285L16.8567 12.8556L10.6382 14.725L5.5728 10.6622L5.42919 17.154L-2.31442e-10 20.7159L6.12968 22.8588L7.8396 29.1229L11.7716 23.9555L18.2575 24.265L14.558 18.9285ZM10.4753 21.1756L9.00995 23.1013L8.37274 20.7669L6.08837 19.9684L8.11171 18.641L8.16523 16.2217L10.0529 17.7358L12.3703 17.0391L11.5137 19.3023L12.8924 21.2911L10.4753 21.1756Z" fill="white"/>
<path d="M39.5706 17.1541L39.4269 10.6623L34.3615 14.725L28.1431 12.8557L30.4417 18.9285L26.7422 24.2649L33.2281 23.9553L37.1601 29.1228L38.87 22.8587L44.9997 20.7159L39.5706 17.1541ZM36.6271 20.767L35.9899 23.1015L34.5246 21.1758L32.1074 21.2911L33.486 19.3023L32.6295 17.0391L34.9468 17.7358L36.8344 16.2217L36.8879 18.641L38.9114 19.9685L36.6271 20.767Z" fill="white"/>
<path d="M23.83 17.045L23.5374 14.3806L21.6006 16.2336L18.9761 15.6885L20.1398 18.1031L18.8105 20.4308L21.4665 20.0701L23.2694 22.0537L23.7472 19.4161L26.1909 18.3144L23.83 17.045Z" fill="white"/>
<path d="M21.9686 11.7473L23.5916 9.61421L26.2691 9.74191L24.742 7.5391L25.6908 5.03219L23.1238 5.80388L21.0329 4.12683L20.9735 6.80662L18.7324 8.27695L21.2627 9.16157L21.9686 11.7473Z" fill="white"/>
<path d="M11.7832 26.976C13.7412 29.3488 17.0261 34.3058 17.0261 40.8459L19.7408 40.8459C19.7408 33.4572 16.067 27.902 13.8771 25.2483L11.7832 26.976Z" fill="white"/>
<path d="M24.5625 40.8458L27.2773 40.8458C27.2773 34.3059 30.562 29.3487 32.5201 26.976L30.4262 25.2481C28.2362 27.9018 24.5625 33.457 24.5625 40.8458Z" fill="white"/>
<path d="M19.9082 25.9308C20.9993 30.7106 20.8768 36.7934 20.7956 40.8186L23.5099 40.8733C23.5936 36.7154 23.7202 30.4319 22.5549 25.3268L19.9082 25.9308Z" fill="white"/>
</g>
<defs>
<clipPath id="clip0_487_341">
<rect width="45" height="45" fill="white"/>
</clipPath>
</defs>
</svg>
