<svg width="46" height="46" viewBox="0 0 46 46" fill="none" xmlns="http://www.w3.org/2000/svg">
<path fill-rule="evenodd" clip-rule="evenodd" d="M23.0007 1.4375C10.8226 1.4375 0.958984 11.3011 0.958984 23.4792C0.958984 33.2326 7.26841 41.4707 16.03 44.3912C17.1321 44.5841 17.5453 43.9228 17.5453 43.3442C17.5453 42.8207 17.5178 41.0849 17.5178 39.239C11.9798 40.2584 10.5471 37.8889 10.1063 36.6491C9.85831 36.0154 8.78378 34.0592 7.84701 33.5357C7.07555 33.1224 5.97346 32.103 7.81945 32.0754C9.55523 32.0479 10.7951 33.6734 11.2084 34.3347C13.1921 37.6685 16.3606 36.7317 17.628 36.1531C17.8209 34.7204 18.3995 33.7561 19.0332 33.2051C14.1289 32.654 9.00419 30.7529 9.00419 22.322C9.00419 19.9249 9.85831 17.9412 11.2635 16.3983C11.043 15.8472 10.2716 13.588 11.4839 10.5572C11.4839 10.5572 13.3299 9.97865 17.5453 12.8165C19.3087 12.3206 21.1822 12.0726 23.0558 12.0726C24.9293 12.0726 26.8028 12.3206 28.5662 12.8165C32.7816 9.95109 34.6276 10.5572 34.6276 10.5572C35.8399 13.588 35.0685 15.8472 34.848 16.3983C36.2532 17.9412 37.1073 19.8974 37.1073 22.322C37.1073 30.7805 31.9551 32.654 27.0508 33.2051C27.8498 33.8939 28.5386 35.2164 28.5386 37.2828C28.5386 40.2308 28.5111 42.6003 28.5111 43.3442C28.5111 43.9228 28.9244 44.6116 30.0264 44.3912C38.7329 41.4707 45.0423 33.2051 45.0423 23.4792C45.0423 11.3011 35.1787 1.4375 23.0007 1.4375V1.4375Z" fill="white"/>
</svg>
