<svg width="51" height="46" viewBox="0 0 51 46" fill="none" xmlns="http://www.w3.org/2000/svg">
<path fill-rule="evenodd" clip-rule="evenodd" d="M23.9707 0.618875C24.8273 -0.206455 26.1728 -0.206455 27.0293 0.618875L44.7685 17.7153L50.3119 23.058C51.1987 23.9125 51.2328 25.3329 50.3882 26.2304C49.5438 27.1278 48.1402 27.1623 47.2533 26.3076L45.4565 24.576L45.4565 41.5121C45.4565 43.9907 43.4711 45.9999 41.0217 45.9999L29.9348 45.9999L21.0652 45.9999L9.97827 45.9999C7.529 45.9999 5.54348 43.9907 5.54348 41.5121L5.54348 24.576L3.74664 26.3076C2.85982 27.1623 1.45628 27.1278 0.611699 26.2304C-0.232875 25.3329 -0.198643 23.9125 0.688161 23.058L6.23163 17.7153L23.9707 0.618875ZM9.97827 20.3018L9.97827 41.5121L18.8478 41.5121L18.8478 30.2926C18.8478 26.5746 21.826 23.5609 25.5 23.5609C29.174 23.5609 32.1522 26.5746 32.1522 30.2926L32.1522 41.5121L41.0217 41.5121L41.0217 20.3018L25.5 5.34249L9.97827 20.3018ZM27.7174 41.5121L27.7174 30.2926C27.7174 29.0532 26.7247 28.0487 25.5 28.0487C24.2753 28.0487 23.2826 29.0532 23.2826 30.2926L23.2826 41.5121L27.7174 41.5121Z" fill="white"/>
</svg>
