<svg width="47" height="45" viewBox="0 0 47 45" fill="none" xmlns="http://www.w3.org/2000/svg">
<g clip-path="url(#clip0_408_420)">
<path d="M41.6264 7.0933L34.4839 0.254721C34.2144 -0.0032575 33.8438 -0.150122 33.4549 -0.150122L6.40218 -0.150122C5.6039 -0.150122 4.94766 0.469026 4.94766 1.24889L4.94766 43.7509C4.94766 44.5307 5.6039 45.1499 6.40218 45.1499L40.5975 45.1499C41.3957 45.1499 42.052 44.5307 42.052 43.7509L42.052 8.08748C42.052 7.70939 41.8961 7.35152 41.6264 7.0933ZM34.9095 6.68846L34.9095 4.62085L37.069 6.68846L34.9095 6.68846ZM7.85671 42.3518L7.85671 2.64791L32.0004 2.64791L32.0004 8.07862C32.0004 8.85849 32.6567 9.47763 33.4549 9.47763L39.1337 9.47763L39.1337 42.3518L7.85671 42.3518Z" fill="white" stroke="white" stroke-width="0.3"/>
<path d="M35.6661 12.0832L21.7049 12.0832C20.9066 12.0832 20.2504 12.7023 20.2504 13.4822C20.2504 14.262 20.9066 14.8812 21.7049 14.8812L35.6661 14.8812C36.4644 14.8812 37.1207 14.262 37.1207 13.4822C37.1207 12.7023 36.4644 12.0832 35.6661 12.0832Z" fill="white" stroke="white" stroke-width="0.3"/>
<path d="M35.6661 23.8823L21.7049 23.8823C20.9066 23.8823 20.2504 24.5015 20.2504 25.2814C20.2504 26.0612 20.9066 26.6804 21.7049 26.6804L35.6661 26.6804C36.4644 26.6804 37.1207 26.0612 37.1207 25.2814C37.1207 24.5015 36.4644 23.8823 35.6661 23.8823Z" fill="white" stroke="white" stroke-width="0.3"/>
<path d="M35.6661 35.6905L21.7049 35.6905C20.9066 35.6905 20.2504 36.3096 20.2504 37.0895C20.2504 37.8693 20.9066 38.4885 21.7049 38.4885L35.6661 38.4885C36.4644 38.4885 37.1207 37.8693 37.1207 37.0895C37.1207 36.3096 36.4644 35.6905 35.6661 35.6905Z" fill="white" stroke="white" stroke-width="0.3"/>
<path d="M17.4956 9.13333L11.3338 9.13333C10.5355 9.13333 9.8793 9.75247 9.8793 10.5323L9.8793 16.4319C9.8793 17.2118 10.5355 17.831 11.3338 17.831L17.4956 17.831C18.2939 17.831 18.9502 17.2118 18.9502 16.4319L18.9502 10.5323C18.9502 9.75247 18.2939 9.13333 17.4956 9.13333ZM16.0411 15.0329L12.7884 15.0329L12.7884 11.9314L16.0411 11.9314L16.0411 15.0329Z" fill="white" stroke="white" stroke-width="0.3"/>
<path d="M17.4956 20.9414L11.3338 20.9414C10.5355 20.9414 9.8793 21.5606 9.8793 22.3404L9.8793 28.2401C9.8793 29.0199 10.5355 29.6391 11.3338 29.6391L17.4956 29.6391C18.2939 29.6391 18.9502 29.0199 18.9502 28.2401L18.9502 22.3404C18.9502 21.5606 18.2939 20.9414 17.4956 20.9414ZM16.0411 26.841L12.7884 26.841L12.7884 23.7395L16.0411 23.7395L16.0411 26.841Z" fill="white" stroke="white" stroke-width="0.3"/>
<path d="M19.8382 33.3502L19.8383 33.3501L19.8363 33.3483C19.261 32.8073 18.3468 32.806 17.7794 33.3492L13.914 37.0501L12.3709 35.5726C11.8035 35.0294 10.8894 35.0307 10.314 35.5717L10.314 35.5717L10.3131 35.5726C9.74197 36.1194 9.74339 37.0057 10.3121 37.5601L10.3131 37.561L12.8851 40.0236C13.1749 40.3011 13.5464 40.4284 13.914 40.4284C14.2841 40.4284 14.6537 40.2907 14.941 40.0255L14.941 40.0255L14.943 40.0236L19.8373 35.3376C20.4084 34.7908 20.4069 33.9046 19.8382 33.3502Z" fill="white" stroke="white" stroke-width="0.3"/>
</g>
<defs>
<clipPath id="clip0_408_420">
<rect width="47" height="45" fill="white"/>
</clipPath>
</defs>
</svg>
