<svg width="24" height="24" viewBox="0 0 24 24" fill="none" xmlns="http://www.w3.org/2000/svg">
<path fill-rule="evenodd" clip-rule="evenodd" d="M21.6604 0.958932C20.3818 -0.319642 18.3089 -0.319646 17.0302 0.958932L1.57964 16.4096C1.12259 16.8667 0.811046 17.4488 0.684288 18.0825L0.0435993 21.286C-0.261852 22.8132 1.08468 24.1598 2.61193 23.8544L5.81536 23.2136C6.44918 23.0869 7.03129 22.7754 7.48834 22.3183L22.9389 6.86764C24.2175 5.58906 24.2175 3.51609 22.9389 2.2375L21.6604 0.958932ZM18.5736 2.50231C18.9999 2.07612 19.6908 2.07612 20.1171 2.50231L21.3956 3.78089C21.8219 4.20708 21.8219 4.89807 21.3956 5.32426L18.48 8.23986L15.6581 5.4179L18.5736 2.50231ZM14.1146 6.96128L3.12301 17.953C2.97066 18.1053 2.86682 18.2994 2.82457 18.5106L2.18388 21.714L5.38731 21.0733C5.59858 21.0311 5.79262 20.9273 5.94497 20.7749L16.9366 9.78323L14.1146 6.96128Z" fill="#111111"/>
</svg>
