<svg width="24" height="26" viewBox="0 0 24 26" fill="none" xmlns="http://www.w3.org/2000/svg">
<path d="M19.6667 5L18.5988 21.0172C18.5053 22.42 18.4585 23.1215 18.1556 23.6533C17.8888 24.1216 17.4864 24.498 17.0015 24.7331C16.4507 25 15.7476 25 14.3416 25L8.99169 25C7.58569 25 6.88269 25 6.33185 24.7331C5.84689 24.498 5.44452 24.1216 5.17776 23.6533C4.87476 23.1215 4.828 22.42 4.73448 21.0172L3.66667 5M1 5L22.3333 5M17 5L16.6392 3.91743C16.2895 2.86833 16.1145 2.34379 15.7903 1.95597C15.5039 1.61351 15.1361 1.34843 14.7207 1.18504C14.2501 1 13.6973 1 12.5915 1L10.7419 1C9.636 1 9.0832 1 8.61268 1.18504C8.19723 1.34843 7.82944 1.61351 7.54305 1.95597C7.21873 2.34379 7.04389 2.86833 6.69419 3.91743L6.33333 5M14.3333 10.3333L14.3333 19.6667M9 10.3333L9 19.6667" stroke="#111111" stroke-width="2" stroke-linecap="round" stroke-linejoin="round"/>
</svg>
